<svg version="1.1" id="Layer_1" xmlns="http://www.w3.org/2000/svg" xmlns:xlink="http://www.w3.org/1999/xlink" x="0px" y="0px"
	 width="100%" viewBox="0 0 2000 1500" enable-background="new 0 0 2000 1500" xml:space="preserve">
<path fill="#2B3452" opacity="1.000000" stroke="none" 
	d="
M1362.000000,1501.000000 
	C908.000122,1501.000000 454.500275,1501.000000 1.000304,1501.000000 
	C1.000203,1001.000305 1.000203,501.000580 1.000101,1.000640 
	C667.666199,1.000426 1334.332397,1.000426 2000.998901,1.000213 
	C2000.999268,500.999359 2000.999268,1000.998718 2000.999634,1500.999023 
	C1788.166626,1501.000000 1575.333374,1501.000000 1362.000000,1501.000000 
M1329.357544,301.104401 
	C1272.996582,273.895477 1217.234375,275.053864 1161.965576,304.435516 
	C1158.452271,306.303284 1154.268188,307.938293 1150.392944,307.945709 
	C1050.744263,308.136719 951.095093,308.121918 851.446350,307.984741 
	C848.154297,307.980194 844.491028,306.978516 841.630493,305.341431 
	C806.517517,285.247162 768.667664,277.335175 728.942261,283.494049 
	C663.320618,293.667816 616.903809,330.032318 589.901367,390.834412 
	C578.509155,416.486511 576.627441,443.934021 575.014282,471.425995 
	C573.687805,494.032715 572.194031,516.629639 570.764954,539.230347 
	C568.831665,569.806091 566.897583,600.381897 564.947998,630.956604 
	C563.750793,649.732910 562.408691,668.500854 561.344788,687.284607 
	C560.393860,704.073792 558.874573,720.892700 559.130920,737.675232 
	C559.633484,770.584595 589.375427,800.893616 622.197998,803.067688 
	C640.248047,804.263245 658.140076,802.684998 675.878113,799.458374 
	C737.799377,788.194458 786.093323,755.207520 824.016785,705.944214 
	C849.481445,672.865112 867.736755,635.956177 881.111084,596.557373 
	C882.535156,592.362366 884.591919,591.020447 888.981995,591.028137 
	C963.635193,591.159485 1038.288818,591.170044 1112.941895,591.009949 
	C1117.685425,590.999695 1119.579224,592.663757 1121.024414,596.959045 
	C1129.654175,622.606995 1140.625977,647.224854 1154.296997,670.612183 
	C1171.757812,700.482788 1192.884399,727.332947 1219.544678,749.585327 
	C1254.651855,778.887939 1294.990967,796.405334 1340.374756,801.486389 
	C1354.997925,803.123596 1370.221802,804.312561 1384.616821,802.100525 
	C1420.288818,796.618652 1444.345825,766.327637 1442.945801,730.259155 
	C1441.776978,700.149048 1439.555908,670.079407 1437.764160,639.994019 
	C1436.784058,623.538635 1435.757080,607.085938 1434.700073,590.635254 
	C1432.821167,561.391357 1430.924072,532.148560 1428.994873,502.907928 
	C1427.635620,482.306702 1427.093994,461.604401 1424.650024,441.130707 
	C1417.168823,378.459564 1385.519897,331.777069 1329.357544,301.104401 
M1211.273071,1022.936340 
	C1211.840210,1013.630127 1211.907471,1004.260254 1213.082642,995.031494 
	C1215.261963,977.916382 1220.594482,961.838562 1235.353027,951.385681 
	C1260.405640,933.641968 1287.934692,933.053955 1315.854370,942.883362 
	C1332.340454,948.687378 1343.392456,961.153564 1350.315918,977.140381 
	C1352.734985,982.726440 1356.020020,986.804199 1362.805298,986.765076 
	C1378.635132,986.673889 1394.467651,986.870544 1410.295532,986.670837 
	C1417.877686,986.575256 1421.069458,982.561035 1420.435913,975.089478 
	C1419.233276,960.904175 1413.712280,948.353394 1405.562744,936.952637 
	C1389.553467,914.556274 1367.414429,900.655029 1341.708130,892.017517 
	C1312.516235,882.208801 1282.567139,881.165344 1252.361450,885.403442 
	C1231.512085,888.328796 1211.939087,895.173767 1194.518433,907.281311 
	C1161.884888,929.961975 1147.403564,962.600525 1145.284546,1001.027222 
	C1143.891846,1026.287109 1144.152588,1051.671021 1144.560913,1076.985107 
	C1144.804321,1092.083862 1145.349609,1107.430298 1148.221436,1122.186157 
	C1156.447754,1164.454346 1180.030640,1195.183716 1221.151001,1210.046143 
	C1261.156860,1224.505737 1302.071289,1224.443604 1342.214355,1210.953613 
	C1386.903687,1195.935913 1414.872803,1164.692871 1420.996582,1117.523315 
	C1424.234985,1092.579346 1422.756836,1067.001831 1423.006592,1041.706421 
	C1423.067139,1035.568970 1418.285156,1032.083984 1411.271118,1032.071899 
	C1374.611084,1032.008789 1337.951050,1032.001465 1301.291260,1032.074585 
	C1293.394043,1032.090332 1289.098022,1036.626709 1289.013306,1044.645264 
	C1288.935791,1051.976562 1288.972168,1059.309204 1289.000854,1066.641113 
	C1289.038818,1076.351562 1292.896606,1080.217163 1302.670288,1080.239136 
	C1319.000610,1080.275757 1335.331055,1080.249390 1351.661377,1080.249512 
	C1353.412598,1080.249512 1355.163940,1080.249512 1356.912720,1080.249512 
	C1356.912720,1089.183838 1357.390503,1097.362061 1356.827148,1105.467773 
	C1354.756836,1135.256104 1337.313599,1156.755127 1308.328369,1163.296875 
	C1296.829956,1165.891846 1284.500000,1166.394409 1272.682861,1165.667358 
	C1244.738037,1163.947998 1224.184692,1147.914673 1216.621216,1122.808960 
	C1214.194824,1114.755615 1212.479126,1106.213135 1212.208862,1097.837280 
	C1211.413940,1073.199097 1211.507080,1048.532227 1211.273071,1022.936340 
M1480.244019,1139.201782 
	C1492.330933,1173.883545 1515.298218,1198.238525 1549.958374,1210.560791 
	C1585.662109,1223.254150 1622.305420,1223.455078 1658.753174,1214.533813 
	C1716.331177,1200.440308 1751.000488,1155.320679 1751.001587,1096.077393 
	C1751.001831,1078.912476 1751.013428,1061.747559 1750.996704,1044.582642 
	C1750.988647,1036.187744 1747.215698,1032.089233 1738.978271,1032.072632 
	C1702.315552,1031.998535 1665.652466,1031.997437 1628.989746,1032.076294 
	C1621.276001,1032.092896 1617.012451,1036.540894 1616.914307,1044.286987 
	C1616.817139,1051.951660 1616.841675,1059.618896 1616.900024,1067.284302 
	C1616.968018,1076.187622 1620.864868,1080.171875 1629.663086,1080.229492 
	C1640.994751,1080.303833 1652.327393,1080.249023 1663.659546,1080.249512 
	C1670.618408,1080.249756 1677.577271,1080.249390 1685.574463,1080.249390 
	C1685.015625,1091.033325 1685.292480,1101.395264 1683.793335,1111.493774 
	C1680.170044,1135.900024 1666.869141,1152.962036 1643.268799,1161.416748 
	C1629.335205,1166.408447 1614.948120,1167.196411 1600.383545,1165.885010 
	C1569.586792,1163.111938 1549.008545,1145.357544 1542.426392,1115.488281 
	C1540.823730,1108.215332 1539.981812,1100.668335 1539.751099,1093.217651 
	C1538.724976,1060.079346 1537.333374,1026.881104 1541.119263,993.850464 
	C1543.747803,970.916626 1554.192993,952.492676 1576.620850,943.430176 
	C1597.938599,934.816162 1619.909058,934.424377 1641.595215,941.961548 
	C1658.837769,947.954224 1670.683838,960.245789 1678.064941,976.864563 
	C1680.227417,981.733215 1682.672119,986.504211 1688.863159,986.564209 
	C1705.690552,986.727478 1722.524414,986.850586 1739.347412,986.539795 
	C1745.865112,986.419312 1749.359863,982.396484 1748.077271,975.874695 
	C1746.297974,966.827515 1744.461914,957.434814 1740.482544,949.242920 
	C1727.941528,923.425598 1706.421509,907.072266 1680.483032,896.172241 
	C1646.735962,881.990906 1611.644531,880.428223 1575.984863,886.104492 
	C1515.371338,895.752930 1475.176147,940.648315 1473.085205,1001.806763 
	C1472.100708,1030.602661 1472.464722,1059.449341 1472.472168,1088.272949 
	C1472.476562,1105.338379 1474.661255,1122.148193 1480.244019,1139.201782 
M572.198608,1108.388794 
	C573.484741,1118.778564 573.910217,1129.363037 576.208984,1139.523682 
	C585.200134,1179.264771 609.305359,1205.127319 648.947632,1215.557617 
	C672.310425,1221.704590 696.174255,1221.901245 719.821594,1217.762207 
	C762.313843,1210.324585 791.022217,1186.329590 801.772705,1143.997314 
	C810.166931,1110.943359 810.123840,1077.176880 801.805054,1044.094849 
	C792.840759,1008.445740 769.856262,984.934814 734.677490,973.853333 
	C709.856567,966.034607 684.421509,965.438354 659.108337,970.244690 
	C616.058960,978.418701 587.769592,1003.278503 576.602661,1046.344360 
	C571.395508,1066.426025 571.924133,1086.932739 572.198608,1108.388794 
M914.196472,1214.259766 
	C957.196777,1226.754639 995.972778,1221.631104 1027.558350,1186.301025 
	C1027.713745,1187.213379 1027.765503,1187.377319 1027.766357,1187.541626 
	C1027.792236,1192.706665 1027.783936,1197.872192 1027.841553,1203.036743 
	C1027.938110,1211.694092 1031.708130,1215.633179 1040.305176,1215.716309 
	C1051.969849,1215.829224 1063.637085,1215.820557 1075.302002,1215.722046 
	C1083.917236,1215.649414 1088.077148,1211.372192 1088.079590,1202.677612 
	C1088.099976,1130.183350 1088.100098,1057.689087 1088.079468,985.194763 
	C1088.076904,976.273804 1083.881714,972.134155 1074.857178,972.093140 
	C1062.858398,972.038696 1050.859009,972.066284 1038.859985,972.083252 
	C1028.290649,972.098206 1024.458740,975.938110 1024.450684,986.611084 
	C1024.429321,1014.942200 1024.491211,1043.273438 1024.424683,1071.604370 
	C1024.386230,1087.933105 1024.500244,1104.273560 1023.908081,1120.585693 
	C1023.489563,1132.116211 1019.819702,1142.850952 1012.449585,1151.964111 
	C998.749817,1168.903809 980.299438,1172.249390 960.121277,1169.254028 
	C939.742126,1166.228516 927.426147,1154.765381 923.130798,1134.617798 
	C921.341736,1126.226318 920.657410,1117.463013 920.602966,1108.861572 
	C920.348938,1068.699585 920.492798,1028.535278 920.488525,988.371704 
	C920.487122,974.920288 917.598694,972.080139 903.961914,972.079163 
	C892.796143,972.078308 881.630249,972.050049 870.464600,972.088196 
	C860.873962,972.121033 856.888184,976.143799 856.884460,985.836060 
	C856.868164,1028.832642 856.674988,1071.831055 857.026672,1114.824707 
	C857.114746,1125.584229 857.980347,1136.545532 860.231506,1147.040039 
	C866.863892,1177.958984 883.101624,1201.724121 914.196472,1214.259766 
M424.151276,983.629700 
	C414.704102,999.907410 405.256927,1016.185059 395.533203,1032.939331 
	C394.322083,1030.916992 393.544128,1029.645508 392.792450,1028.358643 
	C367.104492,984.383240 341.408112,940.412781 315.748962,896.420532 
	C312.980530,891.674133 309.310150,888.119629 303.600952,888.048035 
	C288.939697,887.864136 274.273438,887.850891 259.612152,888.022461 
	C254.528763,888.081909 250.742416,892.127502 251.139755,897.195984 
	C251.374893,900.195435 252.553574,903.332520 254.049332,905.990601 
	C289.387543,968.787598 324.856903,1031.510986 360.150269,1094.333130 
	C361.759308,1097.197266 362.668915,1100.854858 362.687561,1104.149658 
	C362.872192,1136.809448 362.784058,1169.470459 362.810150,1202.131226 
	C362.817841,1211.746582 366.824127,1215.708740 376.511810,1215.738403 
	C389.009430,1215.776611 401.507355,1215.775391 414.004974,1215.740112 
	C424.375977,1215.710815 428.180908,1211.906372 428.185944,1201.570435 
	C428.201843,1168.909668 428.132324,1136.248657 428.293610,1103.588623 
	C428.308380,1100.606445 429.141632,1097.295410 430.599670,1094.702026 
	C466.320160,1031.164917 502.178009,967.705139 538.007874,904.229553 
	C543.050781,895.295593 538.735840,887.966675 528.372681,887.931641 
	C516.375061,887.891052 504.359039,888.325378 492.385162,887.789368 
	C483.337097,887.384338 477.688080,891.317322 473.389557,898.787659 
	C457.203674,926.917114 440.846680,954.948120 424.151276,983.629700 
z"/>
<path fill="#237AA9" opacity="1.000000" stroke="none" 
	d="
M1329.687744,301.275360 
	C1385.519897,331.777069 1417.168823,378.459564 1424.650024,441.130707 
	C1427.093994,461.604401 1427.635620,482.306702 1428.994873,502.907928 
	C1430.924072,532.148560 1432.821167,561.391357 1434.700073,590.635254 
	C1435.757080,607.085938 1436.784058,623.538635 1437.764160,639.994019 
	C1439.555908,670.079407 1441.776978,700.149048 1442.945801,730.259155 
	C1444.345825,766.327637 1420.288818,796.618652 1384.616821,802.100525 
	C1370.221802,804.312561 1354.997925,803.123596 1340.374756,801.486389 
	C1294.990967,796.405334 1254.651855,778.887939 1219.544678,749.585327 
	C1192.884399,727.332947 1171.757812,700.482788 1154.296997,670.612183 
	C1140.625977,647.224854 1129.654175,622.606995 1121.024414,596.959045 
	C1119.579224,592.663757 1117.685425,590.999695 1112.941895,591.009949 
	C1038.288818,591.170044 963.635193,591.159485 888.981995,591.028137 
	C884.591919,591.020447 882.535156,592.362366 881.111084,596.557373 
	C867.736755,635.956177 849.481445,672.865112 824.016785,705.944214 
	C786.093323,755.207520 737.799377,788.194458 675.878113,799.458374 
	C658.140076,802.684998 640.248047,804.263245 622.197998,803.067688 
	C589.375427,800.893616 559.633484,770.584595 559.130920,737.675232 
	C558.874573,720.892700 560.393860,704.073792 561.344788,687.284607 
	C562.408691,668.500854 563.750793,649.732910 564.947998,630.956604 
	C566.897583,600.381897 568.831665,569.806091 570.764954,539.230347 
	C572.194031,516.629639 573.687805,494.032715 575.014282,471.425995 
	C576.627441,443.934021 578.509155,416.486511 589.901367,390.834412 
	C616.903809,330.032318 663.320618,293.667816 728.942261,283.494049 
	C768.667664,277.335175 806.517517,285.247162 841.630493,305.341431 
	C844.491028,306.978516 848.154297,307.980194 851.446350,307.984741 
	C951.095093,308.121918 1050.744263,308.136719 1150.392944,307.945709 
	C1154.268188,307.938293 1158.452271,306.303284 1161.965576,304.435516 
	C1217.234375,275.053864 1272.996582,273.895477 1329.687744,301.275360 
M1190.916504,547.603455 
	C1211.590454,560.658386 1234.005493,566.465881 1258.480347,564.177429 
	C1319.252808,558.494751 1362.763794,503.094696 1353.758789,442.741028 
	C1343.169556,371.769501 1266.034668,331.572723 1201.515015,363.403229 
	C1128.256226,399.545135 1122.073730,501.005798 1190.916504,547.603455 
M841.337952,399.201874 
	C816.237427,364.517212 782.323303,348.335724 739.770691,353.382751 
	C678.936157,360.598114 637.151428,418.132843 649.252686,478.518799 
	C658.050232,522.418823 685.380859,551.131836 728.853455,561.556580 
	C771.753235,571.843872 808.531006,558.521973 836.367981,524.370361 
	C865.603577,488.502869 867.010620,440.402313 841.337952,399.201874 
z"/>
<path fill="#DDD9D6" opacity="1.000000" stroke="none" 
	d="
M1211.262695,1023.406494 
	C1211.507080,1048.532227 1211.413940,1073.199097 1212.208862,1097.837280 
	C1212.479126,1106.213135 1214.194824,1114.755615 1216.621216,1122.808960 
	C1224.184692,1147.914673 1244.738037,1163.947998 1272.682861,1165.667358 
	C1284.500000,1166.394409 1296.829956,1165.891846 1308.328369,1163.296875 
	C1337.313599,1156.755127 1354.756836,1135.256104 1356.827148,1105.467773 
	C1357.390503,1097.362061 1356.912720,1089.183838 1356.912720,1080.249512 
	C1355.163940,1080.249512 1353.412598,1080.249512 1351.661377,1080.249512 
	C1335.331055,1080.249390 1319.000610,1080.275757 1302.670288,1080.239136 
	C1292.896606,1080.217163 1289.038818,1076.351562 1289.000854,1066.641113 
	C1288.972168,1059.309204 1288.935791,1051.976562 1289.013306,1044.645264 
	C1289.098022,1036.626709 1293.394043,1032.090332 1301.291260,1032.074585 
	C1337.951050,1032.001465 1374.611084,1032.008789 1411.271118,1032.071899 
	C1418.285156,1032.083984 1423.067139,1035.568970 1423.006592,1041.706421 
	C1422.756836,1067.001831 1424.234985,1092.579346 1420.996582,1117.523315 
	C1414.872803,1164.692871 1386.903687,1195.935913 1342.214355,1210.953613 
	C1302.071289,1224.443604 1261.156860,1224.505737 1221.151001,1210.046143 
	C1180.030640,1195.183716 1156.447754,1164.454346 1148.221436,1122.186157 
	C1145.349609,1107.430298 1144.804321,1092.083862 1144.560913,1076.985107 
	C1144.152588,1051.671021 1143.891846,1026.287109 1145.284546,1001.027222 
	C1147.403564,962.600525 1161.884888,929.961975 1194.518433,907.281311 
	C1211.939087,895.173767 1231.512085,888.328796 1252.361450,885.403442 
	C1282.567139,881.165344 1312.516235,882.208801 1341.708130,892.017517 
	C1367.414429,900.655029 1389.553467,914.556274 1405.562744,936.952637 
	C1413.712280,948.353394 1419.233276,960.904175 1420.435913,975.089478 
	C1421.069458,982.561035 1417.877686,986.575256 1410.295532,986.670837 
	C1394.467651,986.870544 1378.635132,986.673889 1362.805298,986.765076 
	C1356.020020,986.804199 1352.734985,982.726440 1350.315918,977.140381 
	C1343.392456,961.153564 1332.340454,948.687378 1315.854370,942.883362 
	C1287.934692,933.053955 1260.405640,933.641968 1235.353027,951.385681 
	C1220.594482,961.838562 1215.261963,977.916382 1213.082642,995.031494 
	C1211.907471,1004.260254 1211.840210,1013.630127 1211.262695,1023.406494 
z"/>
<path fill="#DDD9D6" opacity="1.000000" stroke="none" 
	d="
M1480.139526,1138.821045 
	C1474.661255,1122.148193 1472.476562,1105.338379 1472.472168,1088.272949 
	C1472.464722,1059.449341 1472.100708,1030.602661 1473.085205,1001.806763 
	C1475.176147,940.648315 1515.371338,895.752930 1575.984863,886.104492 
	C1611.644531,880.428223 1646.735962,881.990906 1680.483032,896.172241 
	C1706.421509,907.072266 1727.941528,923.425598 1740.482544,949.242920 
	C1744.461914,957.434814 1746.297974,966.827515 1748.077271,975.874695 
	C1749.359863,982.396484 1745.865112,986.419312 1739.347412,986.539795 
	C1722.524414,986.850586 1705.690552,986.727478 1688.863159,986.564209 
	C1682.672119,986.504211 1680.227417,981.733215 1678.064941,976.864563 
	C1670.683838,960.245789 1658.837769,947.954224 1641.595215,941.961548 
	C1619.909058,934.424377 1597.938599,934.816162 1576.620850,943.430176 
	C1554.192993,952.492676 1543.747803,970.916626 1541.119263,993.850464 
	C1537.333374,1026.881104 1538.724976,1060.079346 1539.751099,1093.217651 
	C1539.981812,1100.668335 1540.823730,1108.215332 1542.426392,1115.488281 
	C1549.008545,1145.357544 1569.586792,1163.111938 1600.383545,1165.885010 
	C1614.948120,1167.196411 1629.335205,1166.408447 1643.268799,1161.416748 
	C1666.869141,1152.962036 1680.170044,1135.900024 1683.793335,1111.493774 
	C1685.292480,1101.395264 1685.015625,1091.033325 1685.574463,1080.249390 
	C1677.577271,1080.249390 1670.618408,1080.249756 1663.659546,1080.249512 
	C1652.327393,1080.249023 1640.994751,1080.303833 1629.663086,1080.229492 
	C1620.864868,1080.171875 1616.968018,1076.187622 1616.900024,1067.284302 
	C1616.841675,1059.618896 1616.817139,1051.951660 1616.914307,1044.286987 
	C1617.012451,1036.540894 1621.276001,1032.092896 1628.989746,1032.076294 
	C1665.652466,1031.997437 1702.315552,1031.998535 1738.978271,1032.072632 
	C1747.215698,1032.089233 1750.988647,1036.187744 1750.996704,1044.582642 
	C1751.013428,1061.747559 1751.001831,1078.912476 1751.001587,1096.077393 
	C1751.000488,1155.320679 1716.331177,1200.440308 1658.753174,1214.533813 
	C1622.305420,1223.455078 1585.662109,1223.254150 1549.958374,1210.560791 
	C1515.298218,1198.238525 1492.330933,1173.883545 1480.139526,1138.821045 
z"/>
<path fill="#DDD9D6" opacity="1.000000" stroke="none" 
	d="
M572.184509,1107.901855 
	C571.924133,1086.932739 571.395508,1066.426025 576.602661,1046.344360 
	C587.769592,1003.278503 616.058960,978.418701 659.108337,970.244690 
	C684.421509,965.438354 709.856567,966.034607 734.677490,973.853333 
	C769.856262,984.934814 792.840759,1008.445740 801.805054,1044.094849 
	C810.123840,1077.176880 810.166931,1110.943359 801.772705,1143.997314 
	C791.022217,1186.329590 762.313843,1210.324585 719.821594,1217.762207 
	C696.174255,1221.901245 672.310425,1221.704590 648.947632,1215.557617 
	C609.305359,1205.127319 585.200134,1179.264771 576.208984,1139.523682 
	C573.910217,1129.363037 573.484741,1118.778564 572.184509,1107.901855 
M739.144836,1136.572876 
	C739.429565,1135.617188 739.793518,1134.677246 739.987549,1133.703613 
	C744.823730,1109.438110 744.430359,1085.040771 741.257629,1060.670044 
	C739.687561,1048.610352 735.470886,1037.338989 726.859802,1028.371704 
	C712.371643,1013.284424 694.161560,1011.613098 675.080627,1015.565552 
	C655.947632,1019.528870 644.672668,1032.686523 640.280334,1050.866211 
	C633.386292,1079.400146 633.654297,1108.319336 640.213501,1136.933228 
	C642.952332,1148.880981 649.447449,1159.019531 660.000122,1165.956787 
	C689.545471,1185.379639 727.679871,1171.550537 739.144836,1136.572876 
z"/>
<path fill="#DDD9D6" opacity="1.000000" stroke="none" 
	d="
M913.826050,1214.143188 
	C883.101624,1201.724121 866.863892,1177.958984 860.231506,1147.040039 
	C857.980347,1136.545532 857.114746,1125.584229 857.026672,1114.824707 
	C856.674988,1071.831055 856.868164,1028.832642 856.884460,985.836060 
	C856.888184,976.143799 860.873962,972.121033 870.464600,972.088196 
	C881.630249,972.050049 892.796143,972.078308 903.961914,972.079163 
	C917.598694,972.080139 920.487122,974.920288 920.488525,988.371704 
	C920.492798,1028.535278 920.348938,1068.699585 920.602966,1108.861572 
	C920.657410,1117.463013 921.341736,1126.226318 923.130798,1134.617798 
	C927.426147,1154.765381 939.742126,1166.228516 960.121277,1169.254028 
	C980.299438,1172.249390 998.749817,1168.903809 1012.449585,1151.964111 
	C1019.819702,1142.850952 1023.489563,1132.116211 1023.908081,1120.585693 
	C1024.500244,1104.273560 1024.386230,1087.933105 1024.424683,1071.604370 
	C1024.491211,1043.273438 1024.429321,1014.942200 1024.450684,986.611084 
	C1024.458740,975.938110 1028.290649,972.098206 1038.859985,972.083252 
	C1050.859009,972.066284 1062.858398,972.038696 1074.857178,972.093140 
	C1083.881714,972.134155 1088.076904,976.273804 1088.079468,985.194763 
	C1088.100098,1057.689087 1088.099976,1130.183350 1088.079590,1202.677612 
	C1088.077148,1211.372192 1083.917236,1215.649414 1075.302002,1215.722046 
	C1063.637085,1215.820557 1051.969849,1215.829224 1040.305176,1215.716309 
	C1031.708130,1215.633179 1027.938110,1211.694092 1027.841553,1203.036743 
	C1027.783936,1197.872192 1027.792236,1192.706665 1027.766357,1187.541626 
	C1027.765503,1187.377319 1027.713745,1187.213379 1027.558350,1186.301025 
	C995.972778,1221.631104 957.196777,1226.754639 913.826050,1214.143188 
z"/>
<path fill="#DDD9D7" opacity="1.000000" stroke="none" 
	d="
M424.352539,983.322876 
	C440.846680,954.948120 457.203674,926.917114 473.389557,898.787659 
	C477.688080,891.317322 483.337097,887.384338 492.385162,887.789368 
	C504.359039,888.325378 516.375061,887.891052 528.372681,887.931641 
	C538.735840,887.966675 543.050781,895.295593 538.007874,904.229553 
	C502.178009,967.705139 466.320160,1031.164917 430.599670,1094.702026 
	C429.141632,1097.295410 428.308380,1100.606445 428.293610,1103.588623 
	C428.132324,1136.248657 428.201843,1168.909668 428.185944,1201.570435 
	C428.180908,1211.906372 424.375977,1215.710815 414.004974,1215.740112 
	C401.507355,1215.775391 389.009430,1215.776611 376.511810,1215.738403 
	C366.824127,1215.708740 362.817841,1211.746582 362.810150,1202.131226 
	C362.784058,1169.470459 362.872192,1136.809448 362.687561,1104.149658 
	C362.668915,1100.854858 361.759308,1097.197266 360.150269,1094.333130 
	C324.856903,1031.510986 289.387543,968.787598 254.049332,905.990601 
	C252.553574,903.332520 251.374893,900.195435 251.139755,897.195984 
	C250.742416,892.127502 254.528763,888.081909 259.612152,888.022461 
	C274.273438,887.850891 288.939697,887.864136 303.600952,888.048035 
	C309.310150,888.119629 312.980530,891.674133 315.748962,896.420532 
	C341.408112,940.412781 367.104492,984.383240 392.792450,1028.358643 
	C393.544128,1029.645508 394.322083,1030.916992 395.533203,1032.939331 
	C405.256927,1016.185059 414.704102,999.907410 424.352539,983.322876 
z"/>
<path fill="#2B3452" opacity="1.000000" stroke="none" 
	d="
M1190.615967,547.401062 
	C1122.073730,501.005798 1128.256226,399.545135 1201.515015,363.403229 
	C1266.034668,331.572723 1343.169556,371.769501 1353.758789,442.741028 
	C1362.763794,503.094696 1319.252808,558.494751 1258.480347,564.177429 
	C1234.005493,566.465881 1211.590454,560.658386 1190.615967,547.401062 
M1183.545410,404.146088 
	C1179.452148,410.702545 1177.653687,417.825470 1178.007202,425.558929 
	C1178.850342,444.006531 1196.168457,459.605011 1214.653687,458.481201 
	C1234.732422,457.260498 1250.136230,440.502594 1248.735107,421.403381 
	C1247.604858,405.995697 1237.356079,393.167358 1222.986450,389.173920 
	C1208.075317,385.029968 1193.436523,390.415802 1183.545410,404.146088 
M1248.900269,492.620178 
	C1248.981323,516.553528 1269.396118,533.639587 1291.722046,528.459595 
	C1310.192505,524.174133 1321.522217,507.429504 1318.934570,488.241058 
	C1316.587158,470.834198 1301.132080,458.407074 1282.360840,458.832947 
	C1264.777832,459.231812 1250.273071,473.489258 1248.900269,492.620178 
z"/>
<path fill="#2B3453" opacity="1.000000" stroke="none" 
	d="
M841.542114,399.501221 
	C867.010620,440.402313 865.603577,488.502869 836.367981,524.370361 
	C808.531006,558.521973 771.753235,571.843872 728.853455,561.556580 
	C685.380859,551.131836 658.050232,522.418823 649.252686,478.518799 
	C637.151428,418.132843 678.936157,360.598114 739.770691,353.382751 
	C782.323303,348.335724 816.237427,364.517212 841.542114,399.501221 
M690.502441,485.031525 
	C700.663025,485.031769 710.829041,485.227875 720.981628,484.942566 
	C725.483215,484.816071 727.084961,486.109375 726.992859,490.799591 
	C726.718201,504.785736 727.025269,518.782715 726.819397,532.771240 
	C726.757690,536.966064 728.235779,538.202942 732.307312,538.147400 
	C746.462830,537.954346 760.623779,537.971619 774.779968,538.138611 
	C778.629822,538.184021 780.049377,537.015320 779.994263,533.017212 
	C779.799133,518.861755 780.083740,504.699066 779.827759,490.545563 
	C779.746338,486.046295 781.302673,484.877014 785.592346,484.946869 
	C799.580200,485.174713 813.575806,484.909241 827.564636,485.105530 
	C831.616333,485.162384 833.112427,483.999451 833.046692,479.769226 
	C832.826660,465.614532 832.829590,451.452209 833.045898,437.297363 
	C833.109863,433.113861 831.710205,431.865570 827.609131,431.929382 
	C814.120483,432.139221 800.626587,432.010712 787.134705,432.005219 
	C779.937073,432.002289 779.927307,431.995819 779.923157,425.053986 
	C779.915100,411.395538 779.804504,397.735535 779.990112,384.079620 
	C780.043335,380.163513 778.775635,378.871155 774.838928,378.924011 
	C760.683289,379.114166 746.520325,379.169891 732.367371,378.899078 
	C727.796570,378.811584 726.753357,380.501251 726.817078,384.707947 
	C727.026489,398.529785 726.727966,412.359924 726.988037,426.180023 
	C727.074524,430.774567 725.636230,432.187744 721.044678,432.102478 
	C706.891418,431.839752 692.730164,432.018707 678.572021,432.003632 
	C676.102112,432.001007 673.859924,432.000244 673.872864,435.496918 
	C673.929688,450.820526 673.815125,466.145721 674.050903,481.465851 
	C674.069336,482.663239 676.205505,484.688843 677.530823,484.843536 
	C681.475586,485.304016 685.506897,485.022949 690.502441,485.031525 
z"/>
<path fill="#2C3552" opacity="1.000000" stroke="none" 
	d="
M739.064514,1136.967041 
	C727.679871,1171.550537 689.545471,1185.379639 660.000122,1165.956787 
	C649.447449,1159.019531 642.952332,1148.880981 640.213501,1136.933228 
	C633.654297,1108.319336 633.386292,1079.400146 640.280334,1050.866211 
	C644.672668,1032.686523 655.947632,1019.528870 675.080627,1015.565552 
	C694.161560,1011.613098 712.371643,1013.284424 726.859802,1028.371704 
	C735.470886,1037.338989 739.687561,1048.610352 741.257629,1060.670044 
	C744.430359,1085.040771 744.823730,1109.438110 739.987549,1133.703613 
	C739.793518,1134.677246 739.429565,1135.617188 739.064514,1136.967041 
z"/>
<path fill="#237AA8" opacity="1.000000" stroke="none" 
	d="
M1183.746094,403.841736 
	C1193.436523,390.415802 1208.075317,385.029968 1222.986450,389.173920 
	C1237.356079,393.167358 1247.604858,405.995697 1248.735107,421.403381 
	C1250.136230,440.502594 1234.732422,457.260498 1214.653687,458.481201 
	C1196.168457,459.605011 1178.850342,444.006531 1178.007202,425.558929 
	C1177.653687,417.825470 1179.452148,410.702545 1183.746094,403.841736 
z"/>
<path fill="#237AA9" opacity="1.000000" stroke="none" 
	d="
M1248.911377,492.160767 
	C1250.273071,473.489258 1264.777832,459.231812 1282.360840,458.832947 
	C1301.132080,458.407074 1316.587158,470.834198 1318.934570,488.241058 
	C1321.522217,507.429504 1310.192505,524.174133 1291.722046,528.459595 
	C1269.396118,533.639587 1248.981323,516.553528 1248.911377,492.160767 
z"/>
<path fill="#237AA9" opacity="1.000000" stroke="none" 
	d="
M690.003418,485.031555 
	C685.506897,485.022949 681.475586,485.304016 677.530823,484.843536 
	C676.205505,484.688843 674.069336,482.663239 674.050903,481.465851 
	C673.815125,466.145721 673.929688,450.820526 673.872864,435.496918 
	C673.859924,432.000244 676.102112,432.001007 678.572021,432.003632 
	C692.730164,432.018707 706.891418,431.839752 721.044678,432.102478 
	C725.636230,432.187744 727.074524,430.774567 726.988037,426.180023 
	C726.727966,412.359924 727.026489,398.529785 726.817078,384.707947 
	C726.753357,380.501251 727.796570,378.811584 732.367371,378.899078 
	C746.520325,379.169891 760.683289,379.114166 774.838928,378.924011 
	C778.775635,378.871155 780.043335,380.163513 779.990112,384.079620 
	C779.804504,397.735535 779.915100,411.395538 779.923157,425.053986 
	C779.927307,431.995819 779.937073,432.002289 787.134705,432.005219 
	C800.626587,432.010712 814.120483,432.139221 827.609131,431.929382 
	C831.710205,431.865570 833.109863,433.113861 833.045898,437.297363 
	C832.829590,451.452209 832.826660,465.614532 833.046692,479.769226 
	C833.112427,483.999451 831.616333,485.162384 827.564636,485.105530 
	C813.575806,484.909241 799.580200,485.174713 785.592346,484.946869 
	C781.302673,484.877014 779.746338,486.046295 779.827759,490.545563 
	C780.083740,504.699066 779.799133,518.861755 779.994263,533.017212 
	C780.049377,537.015320 778.629822,538.184021 774.779968,538.138611 
	C760.623779,537.971619 746.462830,537.954346 732.307312,538.147400 
	C728.235779,538.202942 726.757690,536.966064 726.819397,532.771240 
	C727.025269,518.782715 726.718201,504.785736 726.992859,490.799591 
	C727.084961,486.109375 725.483215,484.816071 720.981628,484.942566 
	C710.829041,485.227875 700.663025,485.031769 690.003418,485.031555 
z"/>
</svg>